<mxfile host="65bd71144e">
    <diagram id="RPs4ZjSzWg0kyGDWsQ9b" name="ページ1">
        <mxGraphModel dx="1821" dy="711" grid="1" gridSize="10" guides="1" tooltips="1" connect="1" arrows="1" fold="1" page="1" pageScale="1" pageWidth="827" pageHeight="1169" math="0" shadow="0">
            <root>
                <mxCell id="0"/>
                <mxCell id="1" parent="0"/>
                <mxCell id="260" value="" style="rounded=0;whiteSpace=wrap;html=1;fillColor=none;" vertex="1" parent="1">
                    <mxGeometry y="80" width="790" height="520" as="geometry"/>
                </mxCell>
                <mxCell id="259" value="" style="rounded=0;whiteSpace=wrap;html=1;fillColor=none;" vertex="1" parent="1">
                    <mxGeometry x="840" y="80" width="790" height="520" as="geometry"/>
                </mxCell>
                <mxCell id="409" style="edgeStyle=none;html=1;fontSize=26;startArrow=ERone;startFill=0;endArrow=ERzeroToMany;endFill=0;startSize=16;endSize=16;exitX=0.807;exitY=1.1;exitDx=0;exitDy=0;exitPerimeter=0;strokeWidth=3;" edge="1" parent="1" source="448">
                    <mxGeometry relative="1" as="geometry">
                        <mxPoint x="1408.48" y="970.5999999999999" as="sourcePoint"/>
                        <mxPoint x="1599.9999999999995" y="1211" as="targetPoint"/>
                        <Array as="points">
                            <mxPoint x="1408" y="1211"/>
                        </Array>
                    </mxGeometry>
                </mxCell>
                <mxCell id="424" style="elbow=vertical;html=1;fontSize=26;startArrow=ERone;startFill=0;endArrow=ERzeroToMany;endFill=0;startSize=16;endSize=16;exitX=0.236;exitY=1.1;exitDx=0;exitDy=0;exitPerimeter=0;entryX=0.189;entryY=0.003;entryDx=0;entryDy=0;strokeWidth=3;entryPerimeter=0;" edge="1" parent="1" source="448" target="100">
                    <mxGeometry relative="1" as="geometry"/>
                </mxCell>
                <mxCell id="2" value="users" style="shape=table;startSize=30;container=1;collapsible=1;childLayout=tableLayout;fixedRows=1;rowLines=0;fontStyle=1;align=center;resizeLast=1;labelBorderColor=none;fontSize=26;strokeWidth=3;fillColor=default;" vertex="1" parent="1">
                    <mxGeometry x="1180" y="660" width="280" height="340" as="geometry"/>
                </mxCell>
                <mxCell id="3" value="" style="shape=tableRow;horizontal=0;startSize=0;swimlaneHead=0;swimlaneBody=0;fillColor=none;collapsible=0;dropTarget=0;points=[[0,0.5],[1,0.5]];portConstraint=eastwest;top=0;left=0;right=0;bottom=1;labelBorderColor=none;fontSize=26;strokeWidth=3;" vertex="1" parent="2">
                    <mxGeometry y="30" width="280" height="40" as="geometry"/>
                </mxCell>
                <mxCell id="4" value="PK" style="shape=partialRectangle;connectable=0;fillColor=none;top=0;left=0;bottom=0;right=0;fontStyle=1;overflow=hidden;labelBorderColor=none;fontSize=26;strokeWidth=3;" vertex="1" parent="3">
                    <mxGeometry width="60" height="40" as="geometry">
                        <mxRectangle width="60" height="40" as="alternateBounds"/>
                    </mxGeometry>
                </mxCell>
                <mxCell id="5" value="ID" style="shape=partialRectangle;connectable=0;fillColor=none;top=0;left=0;bottom=0;right=0;align=left;spacingLeft=6;fontStyle=5;overflow=hidden;labelBorderColor=none;fontSize=26;strokeWidth=3;" vertex="1" parent="3">
                    <mxGeometry x="60" width="220" height="40" as="geometry">
                        <mxRectangle width="220" height="40" as="alternateBounds"/>
                    </mxGeometry>
                </mxCell>
                <mxCell id="6" value="" style="shape=tableRow;horizontal=0;startSize=0;swimlaneHead=0;swimlaneBody=0;fillColor=none;collapsible=0;dropTarget=0;points=[[0,0.5],[1,0.5]];portConstraint=eastwest;top=0;left=0;right=0;bottom=0;labelBorderColor=none;fontSize=26;strokeWidth=3;" vertex="1" parent="2">
                    <mxGeometry y="70" width="280" height="30" as="geometry"/>
                </mxCell>
                <mxCell id="7" value="" style="shape=partialRectangle;connectable=0;fillColor=none;top=0;left=0;bottom=0;right=0;editable=1;overflow=hidden;labelBorderColor=none;fontSize=26;strokeWidth=3;" vertex="1" parent="6">
                    <mxGeometry width="60" height="30" as="geometry">
                        <mxRectangle width="60" height="30" as="alternateBounds"/>
                    </mxGeometry>
                </mxCell>
                <mxCell id="8" value="name" style="shape=partialRectangle;connectable=0;fillColor=none;top=0;left=0;bottom=0;right=0;align=left;spacingLeft=6;overflow=hidden;labelBorderColor=none;fontSize=26;strokeWidth=3;" vertex="1" parent="6">
                    <mxGeometry x="60" width="220" height="30" as="geometry">
                        <mxRectangle width="220" height="30" as="alternateBounds"/>
                    </mxGeometry>
                </mxCell>
                <mxCell id="9" value="" style="shape=tableRow;horizontal=0;startSize=0;swimlaneHead=0;swimlaneBody=0;fillColor=none;collapsible=0;dropTarget=0;points=[[0,0.5],[1,0.5]];portConstraint=eastwest;top=0;left=0;right=0;bottom=0;labelBorderColor=none;fontSize=26;strokeWidth=3;" vertex="1" parent="2">
                    <mxGeometry y="100" width="280" height="30" as="geometry"/>
                </mxCell>
                <mxCell id="10" value="" style="shape=partialRectangle;connectable=0;fillColor=none;top=0;left=0;bottom=0;right=0;editable=1;overflow=hidden;labelBorderColor=none;fontSize=26;strokeWidth=3;" vertex="1" parent="9">
                    <mxGeometry width="60" height="30" as="geometry">
                        <mxRectangle width="60" height="30" as="alternateBounds"/>
                    </mxGeometry>
                </mxCell>
                <mxCell id="11" value="email" style="shape=partialRectangle;connectable=0;fillColor=none;top=0;left=0;bottom=0;right=0;align=left;spacingLeft=6;overflow=hidden;labelBorderColor=none;fontSize=26;strokeWidth=3;" vertex="1" parent="9">
                    <mxGeometry x="60" width="220" height="30" as="geometry">
                        <mxRectangle width="220" height="30" as="alternateBounds"/>
                    </mxGeometry>
                </mxCell>
                <mxCell id="12" value="" style="shape=tableRow;horizontal=0;startSize=0;swimlaneHead=0;swimlaneBody=0;fillColor=none;collapsible=0;dropTarget=0;points=[[0,0.5],[1,0.5]];portConstraint=eastwest;top=0;left=0;right=0;bottom=0;labelBorderColor=none;fontSize=26;strokeWidth=3;" vertex="1" parent="2">
                    <mxGeometry y="130" width="280" height="30" as="geometry"/>
                </mxCell>
                <mxCell id="13" value="" style="shape=partialRectangle;connectable=0;fillColor=none;top=0;left=0;bottom=0;right=0;editable=1;overflow=hidden;labelBorderColor=none;fontSize=26;strokeWidth=3;" vertex="1" parent="12">
                    <mxGeometry width="60" height="30" as="geometry">
                        <mxRectangle width="60" height="30" as="alternateBounds"/>
                    </mxGeometry>
                </mxCell>
                <mxCell id="14" value="password" style="shape=partialRectangle;connectable=0;fillColor=none;top=0;left=0;bottom=0;right=0;align=left;spacingLeft=6;overflow=hidden;labelBorderColor=none;fontSize=26;strokeWidth=3;" vertex="1" parent="12">
                    <mxGeometry x="60" width="220" height="30" as="geometry">
                        <mxRectangle width="220" height="30" as="alternateBounds"/>
                    </mxGeometry>
                </mxCell>
                <mxCell id="97" style="shape=tableRow;horizontal=0;startSize=0;swimlaneHead=0;swimlaneBody=0;fillColor=none;collapsible=0;dropTarget=0;points=[[0,0.5],[1,0.5]];portConstraint=eastwest;top=0;left=0;right=0;bottom=0;labelBorderColor=none;fontSize=26;strokeWidth=3;" vertex="1" parent="2">
                    <mxGeometry y="160" width="280" height="30" as="geometry"/>
                </mxCell>
                <mxCell id="98" style="shape=partialRectangle;connectable=0;fillColor=none;top=0;left=0;bottom=0;right=0;editable=1;overflow=hidden;labelBorderColor=none;fontSize=26;strokeWidth=3;" vertex="1" parent="97">
                    <mxGeometry width="60" height="30" as="geometry">
                        <mxRectangle width="60" height="30" as="alternateBounds"/>
                    </mxGeometry>
                </mxCell>
                <mxCell id="99" value="tel" style="shape=partialRectangle;connectable=0;fillColor=none;top=0;left=0;bottom=0;right=0;align=left;spacingLeft=6;overflow=hidden;labelBorderColor=none;fontSize=26;strokeWidth=3;" vertex="1" parent="97">
                    <mxGeometry x="60" width="220" height="30" as="geometry">
                        <mxRectangle width="220" height="30" as="alternateBounds"/>
                    </mxGeometry>
                </mxCell>
                <mxCell id="125" style="shape=tableRow;horizontal=0;startSize=0;swimlaneHead=0;swimlaneBody=0;fillColor=none;collapsible=0;dropTarget=0;points=[[0,0.5],[1,0.5]];portConstraint=eastwest;top=0;left=0;right=0;bottom=0;labelBorderColor=none;fontSize=26;strokeWidth=3;" vertex="1" parent="2">
                    <mxGeometry y="190" width="280" height="30" as="geometry"/>
                </mxCell>
                <mxCell id="126" style="shape=partialRectangle;connectable=0;fillColor=none;top=0;left=0;bottom=0;right=0;editable=1;overflow=hidden;labelBorderColor=none;fontSize=26;strokeWidth=3;" vertex="1" parent="125">
                    <mxGeometry width="60" height="30" as="geometry">
                        <mxRectangle width="60" height="30" as="alternateBounds"/>
                    </mxGeometry>
                </mxCell>
                <mxCell id="127" value="birthday" style="shape=partialRectangle;connectable=0;fillColor=none;top=0;left=0;bottom=0;right=0;align=left;spacingLeft=6;overflow=hidden;labelBorderColor=none;fontSize=26;strokeWidth=3;" vertex="1" parent="125">
                    <mxGeometry x="60" width="220" height="30" as="geometry">
                        <mxRectangle width="220" height="30" as="alternateBounds"/>
                    </mxGeometry>
                </mxCell>
                <mxCell id="122" style="shape=tableRow;horizontal=0;startSize=0;swimlaneHead=0;swimlaneBody=0;fillColor=none;collapsible=0;dropTarget=0;points=[[0,0.5],[1,0.5]];portConstraint=eastwest;top=0;left=0;right=0;bottom=0;labelBorderColor=none;fontSize=26;strokeWidth=3;" vertex="1" parent="2">
                    <mxGeometry y="220" width="280" height="30" as="geometry"/>
                </mxCell>
                <mxCell id="123" style="shape=partialRectangle;connectable=0;fillColor=none;top=0;left=0;bottom=0;right=0;editable=1;overflow=hidden;labelBorderColor=none;fontSize=26;strokeWidth=3;" vertex="1" parent="122">
                    <mxGeometry width="60" height="30" as="geometry">
                        <mxRectangle width="60" height="30" as="alternateBounds"/>
                    </mxGeometry>
                </mxCell>
                <mxCell id="124" value="address" style="shape=partialRectangle;connectable=0;fillColor=none;top=0;left=0;bottom=0;right=0;align=left;spacingLeft=6;overflow=hidden;labelBorderColor=none;fontSize=26;strokeWidth=3;" vertex="1" parent="122">
                    <mxGeometry x="60" width="220" height="30" as="geometry">
                        <mxRectangle width="220" height="30" as="alternateBounds"/>
                    </mxGeometry>
                </mxCell>
                <mxCell id="83" style="shape=tableRow;horizontal=0;startSize=0;swimlaneHead=0;swimlaneBody=0;fillColor=none;collapsible=0;dropTarget=0;points=[[0,0.5],[1,0.5]];portConstraint=eastwest;top=0;left=0;right=0;bottom=0;labelBorderColor=none;fontSize=26;strokeWidth=3;" vertex="1" parent="2">
                    <mxGeometry y="250" width="280" height="30" as="geometry"/>
                </mxCell>
                <mxCell id="84" style="shape=partialRectangle;connectable=0;fillColor=none;top=0;left=0;bottom=0;right=0;editable=1;overflow=hidden;labelBorderColor=none;fontSize=26;strokeWidth=3;" vertex="1" parent="83">
                    <mxGeometry width="60" height="30" as="geometry">
                        <mxRectangle width="60" height="30" as="alternateBounds"/>
                    </mxGeometry>
                </mxCell>
                <mxCell id="85" value="created_at" style="shape=partialRectangle;connectable=0;fillColor=none;top=0;left=0;bottom=0;right=0;align=left;spacingLeft=6;overflow=hidden;labelBorderColor=none;fontSize=26;strokeWidth=3;" vertex="1" parent="83">
                    <mxGeometry x="60" width="220" height="30" as="geometry">
                        <mxRectangle width="220" height="30" as="alternateBounds"/>
                    </mxGeometry>
                </mxCell>
                <mxCell id="80" style="shape=tableRow;horizontal=0;startSize=0;swimlaneHead=0;swimlaneBody=0;fillColor=none;collapsible=0;dropTarget=0;points=[[0,0.5],[1,0.5]];portConstraint=eastwest;top=0;left=0;right=0;bottom=0;labelBorderColor=none;fontSize=26;strokeWidth=3;" vertex="1" parent="2">
                    <mxGeometry y="280" width="280" height="30" as="geometry"/>
                </mxCell>
                <mxCell id="81" style="shape=partialRectangle;connectable=0;fillColor=none;top=0;left=0;bottom=0;right=0;editable=1;overflow=hidden;labelBorderColor=none;fontSize=26;strokeWidth=3;" vertex="1" parent="80">
                    <mxGeometry width="60" height="30" as="geometry">
                        <mxRectangle width="60" height="30" as="alternateBounds"/>
                    </mxGeometry>
                </mxCell>
                <mxCell id="82" value="updated_at" style="shape=partialRectangle;connectable=0;fillColor=none;top=0;left=0;bottom=0;right=0;align=left;spacingLeft=6;overflow=hidden;labelBorderColor=none;fontSize=26;strokeWidth=3;" vertex="1" parent="80">
                    <mxGeometry x="60" width="220" height="30" as="geometry">
                        <mxRectangle width="220" height="30" as="alternateBounds"/>
                    </mxGeometry>
                </mxCell>
                <mxCell id="448" style="shape=tableRow;horizontal=0;startSize=0;swimlaneHead=0;swimlaneBody=0;fillColor=none;collapsible=0;dropTarget=0;points=[[0,0.5],[1,0.5]];portConstraint=eastwest;top=0;left=0;right=0;bottom=0;labelBorderColor=none;fontSize=26;strokeWidth=3;" vertex="1" parent="2">
                    <mxGeometry y="310" width="280" height="30" as="geometry"/>
                </mxCell>
                <mxCell id="449" style="shape=partialRectangle;connectable=0;fillColor=none;top=0;left=0;bottom=0;right=0;editable=1;overflow=hidden;labelBorderColor=none;fontSize=26;strokeWidth=3;" vertex="1" parent="448">
                    <mxGeometry width="60" height="30" as="geometry">
                        <mxRectangle width="60" height="30" as="alternateBounds"/>
                    </mxGeometry>
                </mxCell>
                <mxCell id="450" style="shape=partialRectangle;connectable=0;fillColor=none;top=0;left=0;bottom=0;right=0;align=left;spacingLeft=6;overflow=hidden;labelBorderColor=none;fontSize=26;strokeWidth=3;" vertex="1" parent="448">
                    <mxGeometry x="60" width="220" height="30" as="geometry">
                        <mxRectangle width="220" height="30" as="alternateBounds"/>
                    </mxGeometry>
                </mxCell>
                <mxCell id="399" style="edgeStyle=none;html=1;fontSize=26;startArrow=ERone;startFill=0;endArrow=ERzeroToMany;endFill=0;startSize=16;endSize=16;strokeWidth=3;entryX=1;entryY=0.5;entryDx=0;entryDy=0;exitX=0.004;exitY=0.124;exitDx=0;exitDy=0;exitPerimeter=0;" edge="1" parent="1" source="22" target="92">
                    <mxGeometry relative="1" as="geometry"/>
                </mxCell>
                <mxCell id="15" value="restaurants" style="shape=table;startSize=50;container=1;collapsible=1;childLayout=tableLayout;fixedRows=1;rowLines=0;fontStyle=1;align=center;resizeLast=1;strokeWidth=3;fontSize=26;fillColor=default;" vertex="1" parent="1">
                    <mxGeometry x="2020" y="660" width="290.00000000000045" height="350" as="geometry"/>
                </mxCell>
                <mxCell id="16" value="" style="shape=tableRow;horizontal=0;startSize=0;swimlaneHead=0;swimlaneBody=0;fillColor=none;collapsible=0;dropTarget=0;points=[[0,0.5],[1,0.5]];portConstraint=eastwest;top=0;left=0;right=0;bottom=1;strokeWidth=3;fontSize=26;" vertex="1" parent="15">
                    <mxGeometry y="50" width="290.00000000000045" height="40" as="geometry"/>
                </mxCell>
                <mxCell id="17" value="PK" style="shape=partialRectangle;connectable=0;fillColor=none;top=0;left=0;bottom=0;right=0;fontStyle=1;overflow=hidden;strokeWidth=3;fontSize=26;" vertex="1" parent="16">
                    <mxGeometry width="70" height="40" as="geometry">
                        <mxRectangle width="70" height="40" as="alternateBounds"/>
                    </mxGeometry>
                </mxCell>
                <mxCell id="18" value="ID" style="shape=partialRectangle;connectable=0;fillColor=none;top=0;left=0;bottom=0;right=0;align=left;spacingLeft=6;fontStyle=5;overflow=hidden;strokeWidth=3;fontSize=26;" vertex="1" parent="16">
                    <mxGeometry x="70" width="220.00000000000045" height="40" as="geometry">
                        <mxRectangle width="220.00000000000045" height="40" as="alternateBounds"/>
                    </mxGeometry>
                </mxCell>
                <mxCell id="19" value="" style="shape=tableRow;horizontal=0;startSize=0;swimlaneHead=0;swimlaneBody=0;fillColor=none;collapsible=0;dropTarget=0;points=[[0,0.5],[1,0.5]];portConstraint=eastwest;top=0;left=0;right=0;bottom=0;strokeWidth=3;fontSize=26;" vertex="1" parent="15">
                    <mxGeometry y="90" width="290.00000000000045" height="40" as="geometry"/>
                </mxCell>
                <mxCell id="20" value="" style="shape=partialRectangle;connectable=0;fillColor=none;top=0;left=0;bottom=0;right=0;editable=1;overflow=hidden;strokeWidth=3;fontSize=26;" vertex="1" parent="19">
                    <mxGeometry width="70" height="40" as="geometry">
                        <mxRectangle width="70" height="40" as="alternateBounds"/>
                    </mxGeometry>
                </mxCell>
                <mxCell id="21" value="name" style="shape=partialRectangle;connectable=0;fillColor=none;top=0;left=0;bottom=0;right=0;align=left;spacingLeft=6;overflow=hidden;strokeWidth=3;fontSize=26;" vertex="1" parent="19">
                    <mxGeometry x="70" width="220.00000000000045" height="40" as="geometry">
                        <mxRectangle width="220.00000000000045" height="40" as="alternateBounds"/>
                    </mxGeometry>
                </mxCell>
                <mxCell id="22" value="" style="shape=tableRow;horizontal=0;startSize=0;swimlaneHead=0;swimlaneBody=0;fillColor=none;collapsible=0;dropTarget=0;points=[[0,0.5],[1,0.5]];portConstraint=eastwest;top=0;left=0;right=0;bottom=0;strokeWidth=3;fontSize=26;" vertex="1" parent="15">
                    <mxGeometry y="130" width="290.00000000000045" height="30" as="geometry"/>
                </mxCell>
                <mxCell id="23" value="" style="shape=partialRectangle;connectable=0;fillColor=none;top=0;left=0;bottom=0;right=0;editable=1;overflow=hidden;strokeWidth=3;fontSize=26;" vertex="1" parent="22">
                    <mxGeometry width="70" height="30" as="geometry">
                        <mxRectangle width="70" height="30" as="alternateBounds"/>
                    </mxGeometry>
                </mxCell>
                <mxCell id="24" value="area" style="shape=partialRectangle;connectable=0;fillColor=none;top=0;left=0;bottom=0;right=0;align=left;spacingLeft=6;overflow=hidden;strokeWidth=3;fontSize=26;" vertex="1" parent="22">
                    <mxGeometry x="70" width="220.00000000000045" height="30" as="geometry">
                        <mxRectangle width="220.00000000000045" height="30" as="alternateBounds"/>
                    </mxGeometry>
                </mxCell>
                <mxCell id="25" value="" style="shape=tableRow;horizontal=0;startSize=0;swimlaneHead=0;swimlaneBody=0;fillColor=none;collapsible=0;dropTarget=0;points=[[0,0.5],[1,0.5]];portConstraint=eastwest;top=0;left=0;right=0;bottom=0;strokeWidth=3;fontSize=26;" vertex="1" parent="15">
                    <mxGeometry y="160" width="290.00000000000045" height="40" as="geometry"/>
                </mxCell>
                <mxCell id="26" value="" style="shape=partialRectangle;connectable=0;fillColor=none;top=0;left=0;bottom=0;right=0;editable=1;overflow=hidden;strokeWidth=3;fontSize=26;" vertex="1" parent="25">
                    <mxGeometry width="70" height="40" as="geometry">
                        <mxRectangle width="70" height="40" as="alternateBounds"/>
                    </mxGeometry>
                </mxCell>
                <mxCell id="27" value="genre" style="shape=partialRectangle;connectable=0;fillColor=none;top=0;left=0;bottom=0;right=0;align=left;spacingLeft=6;overflow=hidden;strokeWidth=3;fontSize=26;" vertex="1" parent="25">
                    <mxGeometry x="70" width="220.00000000000045" height="40" as="geometry">
                        <mxRectangle width="220.00000000000045" height="40" as="alternateBounds"/>
                    </mxGeometry>
                </mxCell>
                <mxCell id="445" style="shape=tableRow;horizontal=0;startSize=0;swimlaneHead=0;swimlaneBody=0;fillColor=none;collapsible=0;dropTarget=0;points=[[0,0.5],[1,0.5]];portConstraint=eastwest;top=0;left=0;right=0;bottom=0;strokeWidth=3;fontSize=26;" vertex="1" parent="15">
                    <mxGeometry y="200" width="290.00000000000045" height="40" as="geometry"/>
                </mxCell>
                <mxCell id="446" style="shape=partialRectangle;connectable=0;fillColor=none;top=0;left=0;bottom=0;right=0;editable=1;overflow=hidden;strokeWidth=3;fontSize=26;" vertex="1" parent="445">
                    <mxGeometry width="70" height="40" as="geometry">
                        <mxRectangle width="70" height="40" as="alternateBounds"/>
                    </mxGeometry>
                </mxCell>
                <mxCell id="447" value="number_of seats" style="shape=partialRectangle;connectable=0;fillColor=none;top=0;left=0;bottom=0;right=0;align=left;spacingLeft=6;overflow=hidden;strokeWidth=3;fontSize=26;" vertex="1" parent="445">
                    <mxGeometry x="70" width="220.00000000000045" height="40" as="geometry">
                        <mxRectangle width="220.00000000000045" height="40" as="alternateBounds"/>
                    </mxGeometry>
                </mxCell>
                <mxCell id="379" style="shape=tableRow;horizontal=0;startSize=0;swimlaneHead=0;swimlaneBody=0;fillColor=none;collapsible=0;dropTarget=0;points=[[0,0.5],[1,0.5]];portConstraint=eastwest;top=0;left=0;right=0;bottom=0;strokeWidth=3;fontSize=26;" vertex="1" parent="15">
                    <mxGeometry y="240" width="290.00000000000045" height="50" as="geometry"/>
                </mxCell>
                <mxCell id="380" style="shape=partialRectangle;connectable=0;fillColor=none;top=0;left=0;bottom=0;right=0;editable=1;overflow=hidden;strokeWidth=3;fontSize=26;" vertex="1" parent="379">
                    <mxGeometry width="70" height="50" as="geometry">
                        <mxRectangle width="70" height="50" as="alternateBounds"/>
                    </mxGeometry>
                </mxCell>
                <mxCell id="381" value="created_at" style="shape=partialRectangle;connectable=0;fillColor=none;top=0;left=0;bottom=0;right=0;align=left;spacingLeft=6;overflow=hidden;strokeWidth=3;fontSize=26;" vertex="1" parent="379">
                    <mxGeometry x="70" width="220.00000000000045" height="50" as="geometry">
                        <mxRectangle width="220.00000000000045" height="50" as="alternateBounds"/>
                    </mxGeometry>
                </mxCell>
                <mxCell id="376" style="shape=tableRow;horizontal=0;startSize=0;swimlaneHead=0;swimlaneBody=0;fillColor=none;collapsible=0;dropTarget=0;points=[[0,0.5],[1,0.5]];portConstraint=eastwest;top=0;left=0;right=0;bottom=0;strokeWidth=3;fontSize=26;" vertex="1" parent="15">
                    <mxGeometry y="290" width="290.00000000000045" height="30" as="geometry"/>
                </mxCell>
                <mxCell id="377" style="shape=partialRectangle;connectable=0;fillColor=none;top=0;left=0;bottom=0;right=0;editable=1;overflow=hidden;strokeWidth=3;fontSize=26;" vertex="1" parent="376">
                    <mxGeometry width="70" height="30" as="geometry">
                        <mxRectangle width="70" height="30" as="alternateBounds"/>
                    </mxGeometry>
                </mxCell>
                <mxCell id="378" value="updated_at" style="shape=partialRectangle;connectable=0;fillColor=none;top=0;left=0;bottom=0;right=0;align=left;spacingLeft=6;overflow=hidden;strokeWidth=3;fontSize=26;" vertex="1" parent="376">
                    <mxGeometry x="70" width="220.00000000000045" height="30" as="geometry">
                        <mxRectangle width="220.00000000000045" height="30" as="alternateBounds"/>
                    </mxGeometry>
                </mxCell>
                <mxCell id="442" style="shape=tableRow;horizontal=0;startSize=0;swimlaneHead=0;swimlaneBody=0;fillColor=none;collapsible=0;dropTarget=0;points=[[0,0.5],[1,0.5]];portConstraint=eastwest;top=0;left=0;right=0;bottom=0;strokeWidth=3;fontSize=26;" vertex="1" parent="15">
                    <mxGeometry y="320" width="290.00000000000045" height="30" as="geometry"/>
                </mxCell>
                <mxCell id="443" style="shape=partialRectangle;connectable=0;fillColor=none;top=0;left=0;bottom=0;right=0;editable=1;overflow=hidden;strokeWidth=3;fontSize=26;" vertex="1" parent="442">
                    <mxGeometry width="70" height="30" as="geometry">
                        <mxRectangle width="70" height="30" as="alternateBounds"/>
                    </mxGeometry>
                </mxCell>
                <mxCell id="444" style="shape=partialRectangle;connectable=0;fillColor=none;top=0;left=0;bottom=0;right=0;align=left;spacingLeft=6;overflow=hidden;strokeWidth=3;fontSize=26;" vertex="1" parent="442">
                    <mxGeometry x="70" width="220.00000000000045" height="30" as="geometry">
                        <mxRectangle width="220.00000000000045" height="30" as="alternateBounds"/>
                    </mxGeometry>
                </mxCell>
                <mxCell id="28" value="reserves（予約情報）" style="shape=table;startSize=40;container=1;collapsible=1;childLayout=tableLayout;fixedRows=1;rowLines=0;fontStyle=1;align=center;resizeLast=1;labelBorderColor=none;fontSize=26;strokeWidth=3;fillColor=default;" vertex="1" parent="1">
                    <mxGeometry x="1600" y="661" width="320" height="300" as="geometry"/>
                </mxCell>
                <mxCell id="29" value="" style="shape=tableRow;horizontal=0;startSize=0;swimlaneHead=0;swimlaneBody=0;fillColor=none;collapsible=0;dropTarget=0;points=[[0,0.5],[1,0.5]];portConstraint=eastwest;top=0;left=0;right=0;bottom=1;labelBorderColor=none;fontSize=26;strokeWidth=3;" vertex="1" parent="28">
                    <mxGeometry y="40" width="320" height="50" as="geometry"/>
                </mxCell>
                <mxCell id="30" value="PK" style="shape=partialRectangle;connectable=0;fillColor=none;top=0;left=0;bottom=0;right=0;fontStyle=1;overflow=hidden;labelBorderColor=none;fontSize=26;strokeWidth=3;" vertex="1" parent="29">
                    <mxGeometry width="60" height="50" as="geometry">
                        <mxRectangle width="60" height="50" as="alternateBounds"/>
                    </mxGeometry>
                </mxCell>
                <mxCell id="31" value="ID" style="shape=partialRectangle;connectable=0;fillColor=none;top=0;left=0;bottom=0;right=0;align=left;spacingLeft=6;fontStyle=5;overflow=hidden;labelBorderColor=none;fontSize=26;strokeWidth=3;" vertex="1" parent="29">
                    <mxGeometry x="60" width="260" height="50" as="geometry">
                        <mxRectangle width="260" height="50" as="alternateBounds"/>
                    </mxGeometry>
                </mxCell>
                <mxCell id="32" value="" style="shape=tableRow;horizontal=0;startSize=0;swimlaneHead=0;swimlaneBody=0;fillColor=none;collapsible=0;dropTarget=0;points=[[0,0.5],[1,0.5]];portConstraint=eastwest;top=0;left=0;right=0;bottom=0;labelBorderColor=none;fontSize=26;strokeWidth=3;" vertex="1" parent="28">
                    <mxGeometry y="90" width="320" height="30" as="geometry"/>
                </mxCell>
                <mxCell id="33" value="" style="shape=partialRectangle;connectable=0;fillColor=none;top=0;left=0;bottom=0;right=0;editable=1;overflow=hidden;labelBorderColor=none;fontSize=26;strokeWidth=3;" vertex="1" parent="32">
                    <mxGeometry width="60" height="30" as="geometry">
                        <mxRectangle width="60" height="30" as="alternateBounds"/>
                    </mxGeometry>
                </mxCell>
                <mxCell id="34" value="DateAndTime" style="shape=partialRectangle;connectable=0;fillColor=none;top=0;left=0;bottom=0;right=0;align=left;spacingLeft=6;overflow=hidden;labelBorderColor=none;fontSize=26;strokeWidth=3;" vertex="1" parent="32">
                    <mxGeometry x="60" width="260" height="30" as="geometry">
                        <mxRectangle width="260" height="30" as="alternateBounds"/>
                    </mxGeometry>
                </mxCell>
                <mxCell id="92" style="shape=tableRow;horizontal=0;startSize=0;swimlaneHead=0;swimlaneBody=0;fillColor=none;collapsible=0;dropTarget=0;points=[[0,0.5],[1,0.5]];portConstraint=eastwest;top=0;left=0;right=0;bottom=0;labelBorderColor=none;fontSize=26;strokeWidth=3;" vertex="1" parent="28">
                    <mxGeometry y="120" width="320" height="30" as="geometry"/>
                </mxCell>
                <mxCell id="93" style="shape=partialRectangle;connectable=0;fillColor=none;top=0;left=0;bottom=0;right=0;editable=1;overflow=hidden;labelBorderColor=none;fontSize=26;strokeWidth=3;" vertex="1" parent="92">
                    <mxGeometry width="60" height="30" as="geometry">
                        <mxRectangle width="60" height="30" as="alternateBounds"/>
                    </mxGeometry>
                </mxCell>
                <mxCell id="94" value="number_of_people" style="shape=partialRectangle;connectable=0;fillColor=none;top=0;left=0;bottom=0;right=0;align=left;spacingLeft=6;overflow=hidden;labelBorderColor=none;fontSize=26;strokeWidth=3;" vertex="1" parent="92">
                    <mxGeometry x="60" width="260" height="30" as="geometry">
                        <mxRectangle width="260" height="30" as="alternateBounds"/>
                    </mxGeometry>
                </mxCell>
                <mxCell id="89" style="shape=tableRow;horizontal=0;startSize=0;swimlaneHead=0;swimlaneBody=0;fillColor=none;collapsible=0;dropTarget=0;points=[[0,0.5],[1,0.5]];portConstraint=eastwest;top=0;left=0;right=0;bottom=0;labelBorderColor=none;fontSize=26;strokeWidth=3;" vertex="1" parent="28">
                    <mxGeometry y="150" width="320" height="30" as="geometry"/>
                </mxCell>
                <mxCell id="90" style="shape=partialRectangle;connectable=0;fillColor=none;top=0;left=0;bottom=0;right=0;editable=1;overflow=hidden;labelBorderColor=none;fontSize=26;strokeWidth=3;" vertex="1" parent="89">
                    <mxGeometry width="60" height="30" as="geometry">
                        <mxRectangle width="60" height="30" as="alternateBounds"/>
                    </mxGeometry>
                </mxCell>
                <mxCell id="91" value="user_id" style="shape=partialRectangle;connectable=0;fillColor=none;top=0;left=0;bottom=0;right=0;align=left;spacingLeft=6;overflow=hidden;labelBorderColor=none;fontSize=26;strokeWidth=3;" vertex="1" parent="89">
                    <mxGeometry x="60" width="260" height="30" as="geometry">
                        <mxRectangle width="260" height="30" as="alternateBounds"/>
                    </mxGeometry>
                </mxCell>
                <mxCell id="35" value="" style="shape=tableRow;horizontal=0;startSize=0;swimlaneHead=0;swimlaneBody=0;fillColor=none;collapsible=0;dropTarget=0;points=[[0,0.5],[1,0.5]];portConstraint=eastwest;top=0;left=0;right=0;bottom=0;labelBorderColor=none;fontSize=26;strokeWidth=3;" vertex="1" parent="28">
                    <mxGeometry y="180" width="320" height="30" as="geometry"/>
                </mxCell>
                <mxCell id="36" value="" style="shape=partialRectangle;connectable=0;fillColor=none;top=0;left=0;bottom=0;right=0;editable=1;overflow=hidden;labelBorderColor=none;fontSize=26;strokeWidth=3;" vertex="1" parent="35">
                    <mxGeometry width="60" height="30" as="geometry">
                        <mxRectangle width="60" height="30" as="alternateBounds"/>
                    </mxGeometry>
                </mxCell>
                <mxCell id="37" value="restaurants_id" style="shape=partialRectangle;connectable=0;fillColor=none;top=0;left=0;bottom=0;right=0;align=left;spacingLeft=6;overflow=hidden;labelBorderColor=none;fontSize=26;strokeWidth=3;" vertex="1" parent="35">
                    <mxGeometry x="60" width="260" height="30" as="geometry">
                        <mxRectangle width="260" height="30" as="alternateBounds"/>
                    </mxGeometry>
                </mxCell>
                <mxCell id="38" value="" style="shape=tableRow;horizontal=0;startSize=0;swimlaneHead=0;swimlaneBody=0;fillColor=none;collapsible=0;dropTarget=0;points=[[0,0.5],[1,0.5]];portConstraint=eastwest;top=0;left=0;right=0;bottom=0;labelBorderColor=none;fontSize=26;strokeWidth=3;" vertex="1" parent="28">
                    <mxGeometry y="210" width="320" height="30" as="geometry"/>
                </mxCell>
                <mxCell id="39" value="" style="shape=partialRectangle;connectable=0;fillColor=none;top=0;left=0;bottom=0;right=0;editable=1;overflow=hidden;labelBorderColor=none;fontSize=26;strokeWidth=3;" vertex="1" parent="38">
                    <mxGeometry width="60" height="30" as="geometry">
                        <mxRectangle width="60" height="30" as="alternateBounds"/>
                    </mxGeometry>
                </mxCell>
                <mxCell id="40" value="created_at" style="shape=partialRectangle;connectable=0;fillColor=none;top=0;left=0;bottom=0;right=0;align=left;spacingLeft=6;overflow=hidden;labelBorderColor=none;fontSize=26;strokeWidth=3;" vertex="1" parent="38">
                    <mxGeometry x="60" width="260" height="30" as="geometry">
                        <mxRectangle width="260" height="30" as="alternateBounds"/>
                    </mxGeometry>
                </mxCell>
                <mxCell id="86" style="shape=tableRow;horizontal=0;startSize=0;swimlaneHead=0;swimlaneBody=0;fillColor=none;collapsible=0;dropTarget=0;points=[[0,0.5],[1,0.5]];portConstraint=eastwest;top=0;left=0;right=0;bottom=0;labelBorderColor=none;fontSize=26;strokeWidth=3;" vertex="1" parent="28">
                    <mxGeometry y="240" width="320" height="30" as="geometry"/>
                </mxCell>
                <mxCell id="87" style="shape=partialRectangle;connectable=0;fillColor=none;top=0;left=0;bottom=0;right=0;editable=1;overflow=hidden;labelBorderColor=none;fontSize=26;strokeWidth=3;" vertex="1" parent="86">
                    <mxGeometry width="60" height="30" as="geometry">
                        <mxRectangle width="60" height="30" as="alternateBounds"/>
                    </mxGeometry>
                </mxCell>
                <mxCell id="88" value="updated_at" style="shape=partialRectangle;connectable=0;fillColor=none;top=0;left=0;bottom=0;right=0;align=left;spacingLeft=6;overflow=hidden;labelBorderColor=none;fontSize=26;strokeWidth=3;" vertex="1" parent="86">
                    <mxGeometry x="60" width="260" height="30" as="geometry">
                        <mxRectangle width="260" height="30" as="alternateBounds"/>
                    </mxGeometry>
                </mxCell>
                <mxCell id="451" style="shape=tableRow;horizontal=0;startSize=0;swimlaneHead=0;swimlaneBody=0;fillColor=none;collapsible=0;dropTarget=0;points=[[0,0.5],[1,0.5]];portConstraint=eastwest;top=0;left=0;right=0;bottom=0;labelBorderColor=none;fontSize=26;strokeWidth=3;" vertex="1" parent="28">
                    <mxGeometry y="270" width="320" height="30" as="geometry"/>
                </mxCell>
                <mxCell id="452" style="shape=partialRectangle;connectable=0;fillColor=none;top=0;left=0;bottom=0;right=0;editable=1;overflow=hidden;labelBorderColor=none;fontSize=26;strokeWidth=3;" vertex="1" parent="451">
                    <mxGeometry width="60" height="30" as="geometry">
                        <mxRectangle width="60" height="30" as="alternateBounds"/>
                    </mxGeometry>
                </mxCell>
                <mxCell id="453" style="shape=partialRectangle;connectable=0;fillColor=none;top=0;left=0;bottom=0;right=0;align=left;spacingLeft=6;overflow=hidden;labelBorderColor=none;fontSize=26;strokeWidth=3;" vertex="1" parent="451">
                    <mxGeometry x="60" width="260" height="30" as="geometry">
                        <mxRectangle width="260" height="30" as="alternateBounds"/>
                    </mxGeometry>
                </mxCell>
                <mxCell id="95" style="edgeStyle=none;html=1;entryX=0;entryY=0.5;entryDx=0;entryDy=0;" edge="1" parent="1" source="42">
                    <mxGeometry relative="1" as="geometry">
                        <mxPoint x="121" y="364.9999999999998" as="targetPoint"/>
                    </mxGeometry>
                </mxCell>
                <mxCell id="42" value="ユーザー" style="shape=umlActor;verticalLabelPosition=bottom;verticalAlign=top;html=1;outlineConnect=0;" vertex="1" parent="1">
                    <mxGeometry x="21" y="335" width="30" height="60" as="geometry"/>
                </mxCell>
                <mxCell id="96" style="edgeStyle=none;html=1;entryX=0;entryY=0.5;entryDx=0;entryDy=0;" edge="1" parent="1" source="179" target="60">
                    <mxGeometry relative="1" as="geometry">
                        <mxPoint x="381" y="364.9999999999998" as="sourcePoint"/>
                    </mxGeometry>
                </mxCell>
                <mxCell id="60" value="" style="rounded=1;whiteSpace=wrap;html=1;" vertex="1" parent="1">
                    <mxGeometry x="303" y="165" width="479" height="410" as="geometry"/>
                </mxCell>
                <mxCell id="312" style="edgeStyle=none;html=1;entryX=0;entryY=0.5;entryDx=0;entryDy=0;" edge="1" parent="1" source="61" target="69">
                    <mxGeometry relative="1" as="geometry"/>
                </mxCell>
                <mxCell id="61" value="飲食店一覧を見る" style="whiteSpace=wrap;html=1;align=center;" vertex="1" parent="1">
                    <mxGeometry x="326" y="211" width="104" height="40" as="geometry"/>
                </mxCell>
                <mxCell id="315" style="edgeStyle=none;html=1;exitX=1;exitY=0.5;exitDx=0;exitDy=0;entryX=0;entryY=0.5;entryDx=0;entryDy=0;" edge="1" parent="1" source="62" target="308">
                    <mxGeometry relative="1" as="geometry"/>
                </mxCell>
                <mxCell id="62" value="予約・決済" style="whiteSpace=wrap;html=1;align=center;" vertex="1" parent="1">
                    <mxGeometry x="573" y="189" width="80" height="40" as="geometry"/>
                </mxCell>
                <mxCell id="64" value="ログイン前" style="text;strokeColor=none;fillColor=none;spacingLeft=4;spacingRight=4;overflow=hidden;rotatable=0;points=[[0,0.5],[1,0.5]];portConstraint=eastwest;fontSize=12;" vertex="1" parent="1">
                    <mxGeometry x="151" y="130" width="100" height="30" as="geometry"/>
                </mxCell>
                <mxCell id="65" value="ログイン後" style="text;strokeColor=none;fillColor=none;spacingLeft=4;spacingRight=4;overflow=hidden;rotatable=0;points=[[0,0.5],[1,0.5]];portConstraint=eastwest;fontSize=12;" vertex="1" parent="1">
                    <mxGeometry x="492.5" y="130" width="100" height="30" as="geometry"/>
                </mxCell>
                <mxCell id="316" style="edgeStyle=none;html=1;exitX=1;exitY=0.5;exitDx=0;exitDy=0;entryX=0;entryY=0.5;entryDx=0;entryDy=0;" edge="1" parent="1" source="66" target="310">
                    <mxGeometry relative="1" as="geometry"/>
                </mxCell>
                <mxCell id="317" style="edgeStyle=none;html=1;exitX=1;exitY=0.5;exitDx=0;exitDy=0;" edge="1" parent="1" source="66" target="311">
                    <mxGeometry relative="1" as="geometry"/>
                </mxCell>
                <mxCell id="318" style="edgeStyle=none;html=1;exitX=1;exitY=0.5;exitDx=0;exitDy=0;entryX=0;entryY=0.5;entryDx=0;entryDy=0;" edge="1" parent="1" source="66" target="309">
                    <mxGeometry relative="1" as="geometry"/>
                </mxCell>
                <mxCell id="66" value="マイページの表示" style="whiteSpace=wrap;html=1;align=center;" vertex="1" parent="1">
                    <mxGeometry x="328" y="400" width="100" height="40" as="geometry"/>
                </mxCell>
                <mxCell id="67" value="お気に入り登録" style="whiteSpace=wrap;html=1;align=center;" vertex="1" parent="1">
                    <mxGeometry x="573" y="240" width="100" height="40" as="geometry"/>
                </mxCell>
                <mxCell id="68" value="ログアウト" style="whiteSpace=wrap;html=1;align=center;" vertex="1" parent="1">
                    <mxGeometry x="330" y="520" width="96" height="40" as="geometry"/>
                </mxCell>
                <mxCell id="314" style="edgeStyle=none;html=1;exitX=1;exitY=0.5;exitDx=0;exitDy=0;entryX=0;entryY=0.5;entryDx=0;entryDy=0;" edge="1" parent="1" source="69" target="62">
                    <mxGeometry relative="1" as="geometry"/>
                </mxCell>
                <mxCell id="323" style="edgeStyle=none;html=1;exitX=1;exitY=0.5;exitDx=0;exitDy=0;entryX=0;entryY=0.5;entryDx=0;entryDy=0;" edge="1" parent="1" source="69" target="67">
                    <mxGeometry relative="1" as="geometry"/>
                </mxCell>
                <mxCell id="69" value="飲食店詳細ページの閲覧" style="whiteSpace=wrap;html=1;align=center;" vertex="1" parent="1">
                    <mxGeometry x="450" y="211" width="100" height="40" as="geometry"/>
                </mxCell>
                <mxCell id="100" value="evaluations（評価）" style="shape=table;startSize=80;container=1;collapsible=1;childLayout=tableLayout;fixedRows=1;rowLines=0;fontStyle=1;align=center;resizeLast=1;strokeWidth=3;fontSize=26;fillColor=default;" vertex="1" parent="1">
                    <mxGeometry x="1180" y="1370" width="330" height="330" as="geometry"/>
                </mxCell>
                <mxCell id="101" value="" style="shape=tableRow;horizontal=0;startSize=0;swimlaneHead=0;swimlaneBody=0;fillColor=none;collapsible=0;dropTarget=0;points=[[0,0.5],[1,0.5]];portConstraint=eastwest;top=0;left=0;right=0;bottom=1;strokeWidth=3;fontSize=26;" vertex="1" parent="100">
                    <mxGeometry y="80" width="330" height="40" as="geometry"/>
                </mxCell>
                <mxCell id="102" value="PK" style="shape=partialRectangle;connectable=0;fillColor=none;top=0;left=0;bottom=0;right=0;fontStyle=1;overflow=hidden;strokeWidth=3;fontSize=26;" vertex="1" parent="101">
                    <mxGeometry width="60" height="40" as="geometry">
                        <mxRectangle width="60" height="40" as="alternateBounds"/>
                    </mxGeometry>
                </mxCell>
                <mxCell id="103" value="ID" style="shape=partialRectangle;connectable=0;fillColor=none;top=0;left=0;bottom=0;right=0;align=left;spacingLeft=6;fontStyle=5;overflow=hidden;strokeWidth=3;fontSize=26;" vertex="1" parent="101">
                    <mxGeometry x="60" width="270" height="40" as="geometry">
                        <mxRectangle width="270" height="40" as="alternateBounds"/>
                    </mxGeometry>
                </mxCell>
                <mxCell id="104" value="" style="shape=tableRow;horizontal=0;startSize=0;swimlaneHead=0;swimlaneBody=0;fillColor=none;collapsible=0;dropTarget=0;points=[[0,0.5],[1,0.5]];portConstraint=eastwest;top=0;left=0;right=0;bottom=0;strokeWidth=3;fontSize=26;" vertex="1" parent="100">
                    <mxGeometry y="120" width="330" height="40" as="geometry"/>
                </mxCell>
                <mxCell id="105" value="" style="shape=partialRectangle;connectable=0;fillColor=none;top=0;left=0;bottom=0;right=0;editable=1;overflow=hidden;strokeWidth=3;fontSize=26;" vertex="1" parent="104">
                    <mxGeometry width="60" height="40" as="geometry">
                        <mxRectangle width="60" height="40" as="alternateBounds"/>
                    </mxGeometry>
                </mxCell>
                <mxCell id="106" value="point" style="shape=partialRectangle;connectable=0;fillColor=none;top=0;left=0;bottom=0;right=0;align=left;spacingLeft=6;overflow=hidden;strokeWidth=3;fontSize=26;" vertex="1" parent="104">
                    <mxGeometry x="60" width="270" height="40" as="geometry">
                        <mxRectangle width="270" height="40" as="alternateBounds"/>
                    </mxGeometry>
                </mxCell>
                <mxCell id="107" style="shape=tableRow;horizontal=0;startSize=0;swimlaneHead=0;swimlaneBody=0;fillColor=none;collapsible=0;dropTarget=0;points=[[0,0.5],[1,0.5]];portConstraint=eastwest;top=0;left=0;right=0;bottom=0;strokeWidth=3;fontSize=26;" vertex="1" parent="100">
                    <mxGeometry y="160" width="330" height="40" as="geometry"/>
                </mxCell>
                <mxCell id="108" style="shape=partialRectangle;connectable=0;fillColor=none;top=0;left=0;bottom=0;right=0;editable=1;overflow=hidden;strokeWidth=3;fontSize=26;" vertex="1" parent="107">
                    <mxGeometry width="60" height="40" as="geometry">
                        <mxRectangle width="60" height="40" as="alternateBounds"/>
                    </mxGeometry>
                </mxCell>
                <mxCell id="109" value="opinion" style="shape=partialRectangle;connectable=0;fillColor=none;top=0;left=0;bottom=0;right=0;align=left;spacingLeft=6;overflow=hidden;strokeWidth=3;fontSize=26;" vertex="1" parent="107">
                    <mxGeometry x="60" width="270" height="40" as="geometry">
                        <mxRectangle width="270" height="40" as="alternateBounds"/>
                    </mxGeometry>
                </mxCell>
                <mxCell id="110" style="shape=tableRow;horizontal=0;startSize=0;swimlaneHead=0;swimlaneBody=0;fillColor=none;collapsible=0;dropTarget=0;points=[[0,0.5],[1,0.5]];portConstraint=eastwest;top=0;left=0;right=0;bottom=0;strokeWidth=3;fontSize=26;" vertex="1" parent="100">
                    <mxGeometry y="200" width="330" height="30" as="geometry"/>
                </mxCell>
                <mxCell id="111" style="shape=partialRectangle;connectable=0;fillColor=none;top=0;left=0;bottom=0;right=0;editable=1;overflow=hidden;strokeWidth=3;fontSize=26;" vertex="1" parent="110">
                    <mxGeometry width="60" height="30" as="geometry">
                        <mxRectangle width="60" height="30" as="alternateBounds"/>
                    </mxGeometry>
                </mxCell>
                <mxCell id="112" value="user_id" style="shape=partialRectangle;connectable=0;fillColor=none;top=0;left=0;bottom=0;right=0;align=left;spacingLeft=6;overflow=hidden;strokeWidth=3;fontSize=26;" vertex="1" parent="110">
                    <mxGeometry x="60" width="270" height="30" as="geometry">
                        <mxRectangle width="270" height="30" as="alternateBounds"/>
                    </mxGeometry>
                </mxCell>
                <mxCell id="113" value="" style="shape=tableRow;horizontal=0;startSize=0;swimlaneHead=0;swimlaneBody=0;fillColor=none;collapsible=0;dropTarget=0;points=[[0,0.5],[1,0.5]];portConstraint=eastwest;top=0;left=0;right=0;bottom=0;strokeWidth=3;fontSize=26;" vertex="1" parent="100">
                    <mxGeometry y="230" width="330" height="30" as="geometry"/>
                </mxCell>
                <mxCell id="114" value="" style="shape=partialRectangle;connectable=0;fillColor=none;top=0;left=0;bottom=0;right=0;editable=1;overflow=hidden;strokeWidth=3;fontSize=26;" vertex="1" parent="113">
                    <mxGeometry width="60" height="30" as="geometry">
                        <mxRectangle width="60" height="30" as="alternateBounds"/>
                    </mxGeometry>
                </mxCell>
                <mxCell id="115" value="restaurants_id" style="shape=partialRectangle;connectable=0;fillColor=none;top=0;left=0;bottom=0;right=0;align=left;spacingLeft=6;overflow=hidden;strokeWidth=3;fontSize=26;" vertex="1" parent="113">
                    <mxGeometry x="60" width="270" height="30" as="geometry">
                        <mxRectangle width="270" height="30" as="alternateBounds"/>
                    </mxGeometry>
                </mxCell>
                <mxCell id="116" value="" style="shape=tableRow;horizontal=0;startSize=0;swimlaneHead=0;swimlaneBody=0;fillColor=none;collapsible=0;dropTarget=0;points=[[0,0.5],[1,0.5]];portConstraint=eastwest;top=0;left=0;right=0;bottom=0;strokeWidth=3;fontSize=26;" vertex="1" parent="100">
                    <mxGeometry y="260" width="330" height="30" as="geometry"/>
                </mxCell>
                <mxCell id="117" value="" style="shape=partialRectangle;connectable=0;fillColor=none;top=0;left=0;bottom=0;right=0;editable=1;overflow=hidden;strokeWidth=3;fontSize=26;" vertex="1" parent="116">
                    <mxGeometry width="60" height="30" as="geometry">
                        <mxRectangle width="60" height="30" as="alternateBounds"/>
                    </mxGeometry>
                </mxCell>
                <mxCell id="118" value="created_at" style="shape=partialRectangle;connectable=0;fillColor=none;top=0;left=0;bottom=0;right=0;align=left;spacingLeft=6;overflow=hidden;strokeWidth=3;fontSize=26;" vertex="1" parent="116">
                    <mxGeometry x="60" width="270" height="30" as="geometry">
                        <mxRectangle width="270" height="30" as="alternateBounds"/>
                    </mxGeometry>
                </mxCell>
                <mxCell id="119" style="shape=tableRow;horizontal=0;startSize=0;swimlaneHead=0;swimlaneBody=0;fillColor=none;collapsible=0;dropTarget=0;points=[[0,0.5],[1,0.5]];portConstraint=eastwest;top=0;left=0;right=0;bottom=0;strokeWidth=3;fontSize=26;" vertex="1" parent="100">
                    <mxGeometry y="290" width="330" height="30" as="geometry"/>
                </mxCell>
                <mxCell id="120" style="shape=partialRectangle;connectable=0;fillColor=none;top=0;left=0;bottom=0;right=0;editable=1;overflow=hidden;strokeWidth=3;fontSize=26;" vertex="1" parent="119">
                    <mxGeometry width="60" height="30" as="geometry">
                        <mxRectangle width="60" height="30" as="alternateBounds"/>
                    </mxGeometry>
                </mxCell>
                <mxCell id="121" value="updated_at" style="shape=partialRectangle;connectable=0;fillColor=none;top=0;left=0;bottom=0;right=0;align=left;spacingLeft=6;overflow=hidden;strokeWidth=3;fontSize=26;" vertex="1" parent="119">
                    <mxGeometry x="60" width="270" height="30" as="geometry">
                        <mxRectangle width="270" height="30" as="alternateBounds"/>
                    </mxGeometry>
                </mxCell>
                <mxCell id="418" style="edgeStyle=none;html=1;fontSize=26;startArrow=ERone;startFill=0;endArrow=ERzeroToMany;endFill=0;startSize=16;endSize=16;strokeWidth=3;exitX=0.989;exitY=0.237;exitDx=0;exitDy=0;exitPerimeter=0;" edge="1" parent="1">
                    <mxGeometry relative="1" as="geometry">
                        <mxPoint x="1898.6999999999998" y="1199.48" as="sourcePoint"/>
                        <mxPoint x="2129" y="1010" as="targetPoint"/>
                        <Array as="points">
                            <mxPoint x="2129" y="1199"/>
                        </Array>
                    </mxGeometry>
                </mxCell>
                <mxCell id="128" value="favorits" style="shape=table;startSize=40;container=1;collapsible=1;childLayout=tableLayout;fixedRows=1;rowLines=0;fontStyle=1;align=center;resizeLast=1;labelBorderColor=none;fontSize=26;strokeWidth=3;fillColor=default;" vertex="1" parent="1">
                    <mxGeometry x="1600" y="1070" width="320" height="270" as="geometry"/>
                </mxCell>
                <mxCell id="129" value="" style="shape=tableRow;horizontal=0;startSize=0;swimlaneHead=0;swimlaneBody=0;fillColor=none;collapsible=0;dropTarget=0;points=[[0,0.5],[1,0.5]];portConstraint=eastwest;top=0;left=0;right=0;bottom=1;labelBorderColor=none;fontSize=26;strokeWidth=3;" vertex="1" parent="128">
                    <mxGeometry y="40" width="320" height="50" as="geometry"/>
                </mxCell>
                <mxCell id="130" value="PK" style="shape=partialRectangle;connectable=0;fillColor=none;top=0;left=0;bottom=0;right=0;fontStyle=1;overflow=hidden;labelBorderColor=none;fontSize=26;strokeWidth=3;" vertex="1" parent="129">
                    <mxGeometry width="60" height="50" as="geometry">
                        <mxRectangle width="60" height="50" as="alternateBounds"/>
                    </mxGeometry>
                </mxCell>
                <mxCell id="131" value="ID" style="shape=partialRectangle;connectable=0;fillColor=none;top=0;left=0;bottom=0;right=0;align=left;spacingLeft=6;fontStyle=5;overflow=hidden;labelBorderColor=none;fontSize=26;strokeWidth=3;" vertex="1" parent="129">
                    <mxGeometry x="60" width="260" height="50" as="geometry">
                        <mxRectangle width="260" height="50" as="alternateBounds"/>
                    </mxGeometry>
                </mxCell>
                <mxCell id="138" style="shape=tableRow;horizontal=0;startSize=0;swimlaneHead=0;swimlaneBody=0;fillColor=none;collapsible=0;dropTarget=0;points=[[0,0.5],[1,0.5]];portConstraint=eastwest;top=0;left=0;right=0;bottom=0;labelBorderColor=none;fontSize=26;strokeWidth=3;" vertex="1" parent="128">
                    <mxGeometry y="90" width="320" height="30" as="geometry"/>
                </mxCell>
                <mxCell id="139" style="shape=partialRectangle;connectable=0;fillColor=none;top=0;left=0;bottom=0;right=0;editable=1;overflow=hidden;labelBorderColor=none;fontSize=26;strokeWidth=3;" vertex="1" parent="138">
                    <mxGeometry width="60" height="30" as="geometry">
                        <mxRectangle width="60" height="30" as="alternateBounds"/>
                    </mxGeometry>
                </mxCell>
                <mxCell id="140" value="user_id" style="shape=partialRectangle;connectable=0;fillColor=none;top=0;left=0;bottom=0;right=0;align=left;spacingLeft=6;overflow=hidden;labelBorderColor=none;fontSize=26;strokeWidth=3;" vertex="1" parent="138">
                    <mxGeometry x="60" width="260" height="30" as="geometry">
                        <mxRectangle width="260" height="30" as="alternateBounds"/>
                    </mxGeometry>
                </mxCell>
                <mxCell id="141" value="" style="shape=tableRow;horizontal=0;startSize=0;swimlaneHead=0;swimlaneBody=0;fillColor=none;collapsible=0;dropTarget=0;points=[[0,0.5],[1,0.5]];portConstraint=eastwest;top=0;left=0;right=0;bottom=0;labelBorderColor=none;fontSize=26;strokeWidth=3;" vertex="1" parent="128">
                    <mxGeometry y="120" width="320" height="40" as="geometry"/>
                </mxCell>
                <mxCell id="142" value="" style="shape=partialRectangle;connectable=0;fillColor=none;top=0;left=0;bottom=0;right=0;editable=1;overflow=hidden;labelBorderColor=none;fontSize=26;strokeWidth=3;" vertex="1" parent="141">
                    <mxGeometry width="60" height="40" as="geometry">
                        <mxRectangle width="60" height="40" as="alternateBounds"/>
                    </mxGeometry>
                </mxCell>
                <mxCell id="143" value="restaurants_id" style="shape=partialRectangle;connectable=0;fillColor=none;top=0;left=0;bottom=0;right=0;align=left;spacingLeft=6;overflow=hidden;labelBorderColor=none;fontSize=26;strokeWidth=3;" vertex="1" parent="141">
                    <mxGeometry x="60" width="260" height="40" as="geometry">
                        <mxRectangle width="260" height="40" as="alternateBounds"/>
                    </mxGeometry>
                </mxCell>
                <mxCell id="147" style="shape=tableRow;horizontal=0;startSize=0;swimlaneHead=0;swimlaneBody=0;fillColor=none;collapsible=0;dropTarget=0;points=[[0,0.5],[1,0.5]];portConstraint=eastwest;top=0;left=0;right=0;bottom=0;labelBorderColor=none;fontSize=26;strokeWidth=3;" vertex="1" parent="128">
                    <mxGeometry y="160" width="320" height="60" as="geometry"/>
                </mxCell>
                <mxCell id="148" style="shape=partialRectangle;connectable=0;fillColor=none;top=0;left=0;bottom=0;right=0;editable=1;overflow=hidden;labelBorderColor=none;fontSize=26;strokeWidth=3;" vertex="1" parent="147">
                    <mxGeometry width="60" height="60" as="geometry">
                        <mxRectangle width="60" height="60" as="alternateBounds"/>
                    </mxGeometry>
                </mxCell>
                <mxCell id="149" value="updated_at" style="shape=partialRectangle;connectable=0;fillColor=none;top=0;left=0;bottom=0;right=0;align=left;spacingLeft=6;overflow=hidden;labelBorderColor=none;fontSize=26;strokeWidth=3;" vertex="1" parent="147">
                    <mxGeometry x="60" width="260" height="60" as="geometry">
                        <mxRectangle width="260" height="60" as="alternateBounds"/>
                    </mxGeometry>
                </mxCell>
                <mxCell id="144" value="" style="shape=tableRow;horizontal=0;startSize=0;swimlaneHead=0;swimlaneBody=0;fillColor=none;collapsible=0;dropTarget=0;points=[[0,0.5],[1,0.5]];portConstraint=eastwest;top=0;left=0;right=0;bottom=0;labelBorderColor=none;fontSize=26;strokeWidth=3;" vertex="1" parent="128">
                    <mxGeometry y="220" width="320" height="30" as="geometry"/>
                </mxCell>
                <mxCell id="145" value="" style="shape=partialRectangle;connectable=0;fillColor=none;top=0;left=0;bottom=0;right=0;editable=1;overflow=hidden;labelBorderColor=none;fontSize=26;strokeWidth=3;" vertex="1" parent="144">
                    <mxGeometry width="60" height="30" as="geometry">
                        <mxRectangle width="60" height="30" as="alternateBounds"/>
                    </mxGeometry>
                </mxCell>
                <mxCell id="146" value="created_at" style="shape=partialRectangle;connectable=0;fillColor=none;top=0;left=0;bottom=0;right=0;align=left;spacingLeft=6;overflow=hidden;labelBorderColor=none;fontSize=26;strokeWidth=3;" vertex="1" parent="144">
                    <mxGeometry x="60" width="260" height="30" as="geometry">
                        <mxRectangle width="260" height="30" as="alternateBounds"/>
                    </mxGeometry>
                </mxCell>
                <mxCell id="177" style="edgeStyle=none;html=1;entryX=0;entryY=0.5;entryDx=0;entryDy=0;" edge="1" source="178" target="179" parent="1">
                    <mxGeometry relative="1" as="geometry"/>
                </mxCell>
                <mxCell id="178" value="ユーザー" style="shape=umlActor;verticalLabelPosition=bottom;verticalAlign=top;html=1;outlineConnect=0;" vertex="1" parent="1">
                    <mxGeometry x="21" y="335" width="30" height="60" as="geometry"/>
                </mxCell>
                <mxCell id="179" value="" style="rounded=1;whiteSpace=wrap;html=1;" vertex="1" parent="1">
                    <mxGeometry x="121" y="160" width="150" height="410" as="geometry"/>
                </mxCell>
                <mxCell id="180" value="飲食店一覧を見る" style="whiteSpace=wrap;html=1;align=center;" vertex="1" parent="1">
                    <mxGeometry x="147" y="240" width="100" height="40" as="geometry"/>
                </mxCell>
                <mxCell id="181" value="ログイン" style="whiteSpace=wrap;html=1;align=center;" vertex="1" parent="1">
                    <mxGeometry x="147" y="345" width="100" height="40" as="geometry"/>
                </mxCell>
                <mxCell id="182" value="新規登録" style="whiteSpace=wrap;html=1;align=center;" vertex="1" parent="1">
                    <mxGeometry x="147" y="400" width="100" height="40" as="geometry"/>
                </mxCell>
                <mxCell id="183" value="飲食店詳細ページの閲覧" style="whiteSpace=wrap;html=1;align=center;" vertex="1" parent="1">
                    <mxGeometry x="147" y="291" width="100" height="40" as="geometry"/>
                </mxCell>
                <mxCell id="232" style="edgeStyle=none;html=1;entryX=0;entryY=0.5;entryDx=0;entryDy=0;" edge="1" source="233" parent="1">
                    <mxGeometry relative="1" as="geometry">
                        <mxPoint x="1000" y="365" as="targetPoint"/>
                    </mxGeometry>
                </mxCell>
                <mxCell id="233" value="店舗" style="shape=umlActor;verticalLabelPosition=bottom;verticalAlign=top;html=1;outlineConnect=0;" vertex="1" parent="1">
                    <mxGeometry x="900" y="335" width="30" height="60" as="geometry"/>
                </mxCell>
                <mxCell id="234" style="edgeStyle=none;html=1;entryX=0;entryY=0.5;entryDx=0;entryDy=0;exitX=1;exitY=0.5;exitDx=0;exitDy=0;" edge="1" source="251" target="239" parent="1">
                    <mxGeometry relative="1" as="geometry">
                        <mxPoint x="1260" y="365" as="sourcePoint"/>
                    </mxGeometry>
                </mxCell>
                <mxCell id="239" value="" style="rounded=1;whiteSpace=wrap;html=1;" vertex="1" parent="1">
                    <mxGeometry x="1150" y="160" width="460" height="410" as="geometry"/>
                </mxCell>
                <mxCell id="327" style="edgeStyle=none;html=1;exitX=1;exitY=0.5;exitDx=0;exitDy=0;entryX=0;entryY=0.5;entryDx=0;entryDy=0;" edge="1" parent="1" source="240" target="247">
                    <mxGeometry relative="1" as="geometry"/>
                </mxCell>
                <mxCell id="240" value="飲食店一覧を見る" style="whiteSpace=wrap;html=1;align=center;" vertex="1" parent="1">
                    <mxGeometry x="1170" y="189" width="100" height="40" as="geometry"/>
                </mxCell>
                <mxCell id="241" value="予約情報確認" style="whiteSpace=wrap;html=1;align=center;" vertex="1" parent="1">
                    <mxGeometry x="1320" y="254" width="100" height="40" as="geometry"/>
                </mxCell>
                <mxCell id="242" value="ログイン前" style="text;strokeColor=none;fillColor=none;spacingLeft=4;spacingRight=4;overflow=hidden;rotatable=0;points=[[0,0.5],[1,0.5]];portConstraint=eastwest;fontSize=12;" vertex="1" parent="1">
                    <mxGeometry x="1100" y="130" width="100" height="30" as="geometry"/>
                </mxCell>
                <mxCell id="243" value="ログイン後" style="text;strokeColor=none;fillColor=none;spacingLeft=4;spacingRight=4;overflow=hidden;rotatable=0;points=[[0,0.5],[1,0.5]];portConstraint=eastwest;fontSize=12;" vertex="1" parent="1">
                    <mxGeometry x="1180" y="128" width="100" height="30" as="geometry"/>
                </mxCell>
                <mxCell id="325" style="edgeStyle=none;html=1;exitX=1;exitY=0.5;exitDx=0;exitDy=0;entryX=0;entryY=0.5;entryDx=0;entryDy=0;" edge="1" parent="1" source="244" target="241">
                    <mxGeometry relative="1" as="geometry"/>
                </mxCell>
                <mxCell id="326" style="edgeStyle=none;html=1;exitX=1;exitY=0.5;exitDx=0;exitDy=0;entryX=0;entryY=0.5;entryDx=0;entryDy=0;" edge="1" parent="1" source="244" target="256">
                    <mxGeometry relative="1" as="geometry"/>
                </mxCell>
                <mxCell id="244" value="飲食店用&lt;br&gt;マイページ" style="whiteSpace=wrap;html=1;align=center;" vertex="1" parent="1">
                    <mxGeometry x="1170" y="279.5" width="100" height="40" as="geometry"/>
                </mxCell>
                <mxCell id="245" value="ログアウト" style="whiteSpace=wrap;html=1;align=center;" vertex="1" parent="1">
                    <mxGeometry x="1170" y="457" width="100" height="40" as="geometry"/>
                </mxCell>
                <mxCell id="247" value="飲食店詳細ページの閲覧" style="whiteSpace=wrap;html=1;align=center;" vertex="1" parent="1">
                    <mxGeometry x="1320" y="189" width="100" height="40" as="geometry"/>
                </mxCell>
                <mxCell id="251" value="" style="rounded=1;whiteSpace=wrap;html=1;" vertex="1" parent="1">
                    <mxGeometry x="1000" y="160" width="120" height="410" as="geometry"/>
                </mxCell>
                <mxCell id="252" value="飲食店一覧を見る" style="whiteSpace=wrap;html=1;align=center;" vertex="1" parent="1">
                    <mxGeometry x="1010" y="265" width="100" height="40" as="geometry"/>
                </mxCell>
                <mxCell id="253" value="ログイン" style="whiteSpace=wrap;html=1;align=center;" vertex="1" parent="1">
                    <mxGeometry x="1010" y="370" width="100" height="40" as="geometry"/>
                </mxCell>
                <mxCell id="254" value="新規登録" style="whiteSpace=wrap;html=1;align=center;" vertex="1" parent="1">
                    <mxGeometry x="1010" y="425" width="100" height="40" as="geometry"/>
                </mxCell>
                <mxCell id="255" value="飲食店詳細ページの閲覧" style="whiteSpace=wrap;html=1;align=center;" vertex="1" parent="1">
                    <mxGeometry x="1010" y="316" width="100" height="40" as="geometry"/>
                </mxCell>
                <mxCell id="256" value="飲食店用&lt;br&gt;マイページの編集" style="whiteSpace=wrap;html=1;align=center;" vertex="1" parent="1">
                    <mxGeometry x="1320" y="305" width="100" height="40" as="geometry"/>
                </mxCell>
                <mxCell id="261" value="" style="rounded=0;whiteSpace=wrap;html=1;fillColor=none;" vertex="1" parent="1">
                    <mxGeometry x="1680" y="80" width="470" height="520" as="geometry"/>
                </mxCell>
                <mxCell id="262" style="edgeStyle=none;html=1;entryX=0;entryY=0.5;entryDx=0;entryDy=0;" edge="1" source="263" target="265" parent="1">
                    <mxGeometry relative="1" as="geometry"/>
                </mxCell>
                <mxCell id="263" value="管理者" style="shape=umlActor;verticalLabelPosition=bottom;verticalAlign=top;html=1;outlineConnect=0;" vertex="1" parent="1">
                    <mxGeometry x="1740" y="335" width="30" height="60" as="geometry"/>
                </mxCell>
                <mxCell id="265" value="" style="rounded=1;whiteSpace=wrap;html=1;" vertex="1" parent="1">
                    <mxGeometry x="1840" y="160" width="260" height="410" as="geometry"/>
                </mxCell>
                <mxCell id="266" value="飲食店一覧を見る" style="whiteSpace=wrap;html=1;align=center;" vertex="1" parent="1">
                    <mxGeometry x="1920" y="240" width="100" height="40" as="geometry"/>
                </mxCell>
                <mxCell id="267" value="ログイン" style="whiteSpace=wrap;html=1;align=center;" vertex="1" parent="1">
                    <mxGeometry x="1920" y="345" width="100" height="40" as="geometry"/>
                </mxCell>
                <mxCell id="268" value="新規登録" style="whiteSpace=wrap;html=1;align=center;" vertex="1" parent="1">
                    <mxGeometry x="1920" y="400" width="100" height="40" as="geometry"/>
                </mxCell>
                <mxCell id="278" value="飲食店詳細ページの閲覧" style="whiteSpace=wrap;html=1;align=center;" vertex="1" parent="1">
                    <mxGeometry x="1920" y="291" width="100" height="40" as="geometry"/>
                </mxCell>
                <mxCell id="279" value="" style="rounded=1;whiteSpace=wrap;html=1;" vertex="1" parent="1">
                    <mxGeometry x="1840" y="160" width="260" height="410" as="geometry"/>
                </mxCell>
                <mxCell id="280" value="飲食店一覧を見る" style="whiteSpace=wrap;html=1;align=center;" vertex="1" parent="1">
                    <mxGeometry x="1920" y="189" width="100" height="40" as="geometry"/>
                </mxCell>
                <mxCell id="283" value="飲食店詳細ページの閲覧" style="whiteSpace=wrap;html=1;align=center;" vertex="1" parent="1">
                    <mxGeometry x="1920" y="251" width="100" height="40" as="geometry"/>
                </mxCell>
                <mxCell id="285" value="飲食店ページ&lt;br&gt;の作成" style="whiteSpace=wrap;html=1;align=center;" vertex="1" parent="1">
                    <mxGeometry x="1920" y="310" width="100" height="40" as="geometry"/>
                </mxCell>
                <mxCell id="308" value="評価" style="whiteSpace=wrap;html=1;align=center;" vertex="1" parent="1">
                    <mxGeometry x="670" y="189" width="60" height="40" as="geometry"/>
                </mxCell>
                <mxCell id="320" style="edgeStyle=none;html=1;exitX=1;exitY=0.5;exitDx=0;exitDy=0;entryX=0;entryY=0.5;entryDx=0;entryDy=0;" edge="1" parent="1" source="309" target="319">
                    <mxGeometry relative="1" as="geometry"/>
                </mxCell>
                <mxCell id="309" value="お気に入り管理" style="whiteSpace=wrap;html=1;align=center;" vertex="1" parent="1">
                    <mxGeometry x="451" y="450" width="100" height="40" as="geometry"/>
                </mxCell>
                <mxCell id="322" style="edgeStyle=none;html=1;exitX=1;exitY=0.5;exitDx=0;exitDy=0;entryX=0;entryY=0.5;entryDx=0;entryDy=0;" edge="1" parent="1" source="310" target="321">
                    <mxGeometry relative="1" as="geometry"/>
                </mxCell>
                <mxCell id="310" value="予約一覧" style="whiteSpace=wrap;html=1;align=center;" vertex="1" parent="1">
                    <mxGeometry x="450" y="351" width="100" height="40" as="geometry"/>
                </mxCell>
                <mxCell id="311" value="利用履歴" style="whiteSpace=wrap;html=1;align=center;" vertex="1" parent="1">
                    <mxGeometry x="450" y="400" width="100" height="40" as="geometry"/>
                </mxCell>
                <mxCell id="319" value="お気に入り削除" style="whiteSpace=wrap;html=1;align=center;" vertex="1" parent="1">
                    <mxGeometry x="592.5" y="450" width="100" height="40" as="geometry"/>
                </mxCell>
                <mxCell id="321" value="キャンセル&lt;br&gt;リクエスト" style="whiteSpace=wrap;html=1;align=center;" vertex="1" parent="1">
                    <mxGeometry x="592.5" y="350" width="100" height="40" as="geometry"/>
                </mxCell>
                <mxCell id="328" value="連絡フォーム" style="whiteSpace=wrap;html=1;align=center;" vertex="1" parent="1">
                    <mxGeometry x="1450" y="254" width="100" height="40" as="geometry"/>
                </mxCell>
                <mxCell id="358" value="users - reserves テーブル" style="shape=table;startSize=40;container=1;collapsible=1;childLayout=tableLayout;fixedRows=1;rowLines=0;fontStyle=1;align=center;resizeLast=1;strokeColor=default;fillColor=default;strokeWidth=3;fontSize=25;verticalAlign=middle;" vertex="1" parent="1">
                    <mxGeometry x="41.5" y="640" width="1089" height="150" as="geometry"/>
                </mxCell>
                <mxCell id="359" value="" style="shape=tableRow;horizontal=0;startSize=0;swimlaneHead=0;swimlaneBody=0;fillColor=none;collapsible=0;dropTarget=0;points=[[0,0.5],[1,0.5]];portConstraint=eastwest;top=0;left=0;right=0;bottom=0;strokeColor=#FF3333;" vertex="1" parent="358">
                    <mxGeometry y="40" width="1089" height="110" as="geometry"/>
                </mxCell>
                <mxCell id="360" value="1対Ｎ（0以上）" style="shape=partialRectangle;connectable=0;fillColor=none;top=0;left=0;bottom=0;right=0;fontStyle=1;overflow=hidden;strokeColor=#FF3333;fontSize=25;" vertex="1" parent="359">
                    <mxGeometry width="219" height="110" as="geometry">
                        <mxRectangle width="219" height="110" as="alternateBounds"/>
                    </mxGeometry>
                </mxCell>
                <mxCell id="361" value="・ユーザーは予約（reserves）をしていない可能性がある（0）&#10;・ユーザーは予約（reserves）を1件している可能性がある（1）&#10;・ユーザーは予約（reserves）を複数している可能性がある（Ｎ）" style="shape=partialRectangle;connectable=0;fillColor=none;top=0;left=0;bottom=0;right=0;align=left;spacingLeft=6;fontStyle=0;overflow=hidden;strokeColor=#FF3333;fontSize=25;" vertex="1" parent="359">
                    <mxGeometry x="219" width="870" height="110" as="geometry">
                        <mxRectangle width="870" height="110" as="alternateBounds"/>
                    </mxGeometry>
                </mxCell>
                <mxCell id="371" value="reserves - users テーブル" style="shape=table;startSize=40;container=1;collapsible=1;childLayout=tableLayout;fixedRows=1;rowLines=0;fontStyle=1;align=center;resizeLast=1;strokeColor=default;fillColor=default;strokeWidth=3;fontSize=25;verticalAlign=middle;" vertex="1" parent="1">
                    <mxGeometry x="41.5" y="820" width="1089" height="150" as="geometry"/>
                </mxCell>
                <mxCell id="372" value="" style="shape=tableRow;horizontal=0;startSize=0;swimlaneHead=0;swimlaneBody=0;fillColor=none;collapsible=0;dropTarget=0;points=[[0,0.5],[1,0.5]];portConstraint=eastwest;top=0;left=0;right=0;bottom=0;strokeColor=#FF3333;" vertex="1" parent="371">
                    <mxGeometry y="40" width="1089" height="110" as="geometry"/>
                </mxCell>
                <mxCell id="373" value="1対1" style="shape=partialRectangle;connectable=0;fillColor=none;top=0;left=0;bottom=0;right=0;fontStyle=1;overflow=hidden;strokeColor=#FF3333;fontSize=25;" vertex="1" parent="372">
                    <mxGeometry width="219" height="110" as="geometry">
                        <mxRectangle width="219" height="110" as="alternateBounds"/>
                    </mxGeometry>
                </mxCell>
                <mxCell id="374" value="・予約に対してユーザーがいない可能性は無い（0）&#10;・予約に対してユーザーは1人（1）&#10;・予約に対してユーザーが複数いる可能性は無い（Ｎ）" style="shape=partialRectangle;connectable=0;fillColor=none;top=0;left=0;bottom=0;right=0;align=left;spacingLeft=6;fontStyle=0;overflow=hidden;strokeColor=#FF3333;fontSize=25;" vertex="1" parent="372">
                    <mxGeometry x="219" width="870" height="110" as="geometry">
                        <mxRectangle width="870" height="110" as="alternateBounds"/>
                    </mxGeometry>
                </mxCell>
                <mxCell id="375" style="edgeStyle=none;html=1;fontSize=26;exitX=1;exitY=0.5;exitDx=0;exitDy=0;startArrow=ERone;startFill=0;endArrow=ERzeroToMany;endFill=0;endSize=16;startSize=16;strokeWidth=3;entryX=0.009;entryY=-0.146;entryDx=0;entryDy=0;entryPerimeter=0;" edge="1" parent="1" source="12" target="89">
                    <mxGeometry relative="1" as="geometry">
                        <mxPoint x="1570" y="805" as="targetPoint"/>
                    </mxGeometry>
                </mxCell>
                <mxCell id="390" value="restaurants - reserves テーブル" style="shape=table;startSize=40;container=1;collapsible=1;childLayout=tableLayout;fixedRows=1;rowLines=0;fontStyle=1;align=center;resizeLast=1;strokeColor=default;fillColor=default;strokeWidth=3;fontSize=25;verticalAlign=middle;" vertex="1" parent="1">
                    <mxGeometry x="41" y="1010" width="1089" height="150" as="geometry"/>
                </mxCell>
                <mxCell id="391" value="" style="shape=tableRow;horizontal=0;startSize=0;swimlaneHead=0;swimlaneBody=0;fillColor=none;collapsible=0;dropTarget=0;points=[[0,0.5],[1,0.5]];portConstraint=eastwest;top=0;left=0;right=0;bottom=0;strokeColor=#FF3333;" vertex="1" parent="390">
                    <mxGeometry y="40" width="1089" height="110" as="geometry"/>
                </mxCell>
                <mxCell id="392" value="1対Ｎ（0以上）" style="shape=partialRectangle;connectable=0;fillColor=none;top=0;left=0;bottom=0;right=0;fontStyle=1;overflow=hidden;strokeColor=#FF3333;fontSize=25;" vertex="1" parent="391">
                    <mxGeometry width="219" height="110" as="geometry">
                        <mxRectangle width="219" height="110" as="alternateBounds"/>
                    </mxGeometry>
                </mxCell>
                <mxCell id="393" value="・レストランは予約（reserves）を受けていない可能性がある（0）&#10;・レストランは予約（reserves）を1件受けている可能性がある（1）&#10;・レストランは予約（reserves）を複数受けている可能性がある（Ｎ）" style="shape=partialRectangle;connectable=0;fillColor=none;top=0;left=0;bottom=0;right=0;align=left;spacingLeft=6;fontStyle=0;overflow=hidden;strokeColor=#FF3333;fontSize=25;" vertex="1" parent="391">
                    <mxGeometry x="219" width="870" height="110" as="geometry">
                        <mxRectangle width="870" height="110" as="alternateBounds"/>
                    </mxGeometry>
                </mxCell>
                <mxCell id="394" value="reserves - restaurants テーブル" style="shape=table;startSize=40;container=1;collapsible=1;childLayout=tableLayout;fixedRows=1;rowLines=0;fontStyle=1;align=center;resizeLast=1;strokeColor=default;fillColor=default;strokeWidth=3;fontSize=25;verticalAlign=middle;" vertex="1" parent="1">
                    <mxGeometry x="41" y="1190" width="1089" height="150" as="geometry"/>
                </mxCell>
                <mxCell id="395" value="" style="shape=tableRow;horizontal=0;startSize=0;swimlaneHead=0;swimlaneBody=0;fillColor=none;collapsible=0;dropTarget=0;points=[[0,0.5],[1,0.5]];portConstraint=eastwest;top=0;left=0;right=0;bottom=0;strokeColor=#FF3333;" vertex="1" parent="394">
                    <mxGeometry y="40" width="1089" height="110" as="geometry"/>
                </mxCell>
                <mxCell id="396" value="1対1" style="shape=partialRectangle;connectable=0;fillColor=none;top=0;left=0;bottom=0;right=0;fontStyle=1;overflow=hidden;strokeColor=#FF3333;fontSize=25;" vertex="1" parent="395">
                    <mxGeometry width="219" height="110" as="geometry">
                        <mxRectangle width="219" height="110" as="alternateBounds"/>
                    </mxGeometry>
                </mxCell>
                <mxCell id="397" value="・予約に対してレストランがない可能性は無い（0）&#10;・予約に対してレストランは1軒存在する（1）&#10;・予約に対してレストランが複数軒存在する可能性は無い（Ｎ）" style="shape=partialRectangle;connectable=0;fillColor=none;top=0;left=0;bottom=0;right=0;align=left;spacingLeft=6;fontStyle=0;overflow=hidden;strokeColor=#FF3333;fontSize=25;" vertex="1" parent="395">
                    <mxGeometry x="219" width="870" height="110" as="geometry">
                        <mxRectangle width="870" height="110" as="alternateBounds"/>
                    </mxGeometry>
                </mxCell>
                <mxCell id="400" value="user - favorits テーブル" style="shape=table;startSize=40;container=1;collapsible=1;childLayout=tableLayout;fixedRows=1;rowLines=0;fontStyle=1;align=center;resizeLast=1;strokeColor=default;fillColor=default;strokeWidth=3;fontSize=25;verticalAlign=middle;" vertex="1" parent="1">
                    <mxGeometry x="41" y="1360" width="1089" height="150" as="geometry"/>
                </mxCell>
                <mxCell id="401" value="" style="shape=tableRow;horizontal=0;startSize=0;swimlaneHead=0;swimlaneBody=0;fillColor=none;collapsible=0;dropTarget=0;points=[[0,0.5],[1,0.5]];portConstraint=eastwest;top=0;left=0;right=0;bottom=0;strokeColor=#FF3333;" vertex="1" parent="400">
                    <mxGeometry y="40" width="1089" height="110" as="geometry"/>
                </mxCell>
                <mxCell id="402" value="1対Ｎ（0以上）" style="shape=partialRectangle;connectable=0;fillColor=none;top=0;left=0;bottom=0;right=0;fontStyle=1;overflow=hidden;strokeColor=#FF3333;fontSize=25;" vertex="1" parent="401">
                    <mxGeometry width="219" height="110" as="geometry">
                        <mxRectangle width="219" height="110" as="alternateBounds"/>
                    </mxGeometry>
                </mxCell>
                <mxCell id="403" value="・ユーザーにお気に入りが無い可能性がある（0）&#10;・ユーザーにお気に入りが1軒存在する可能性がある（1）&#10;・ユーザーにお気に入りが複数存在する可能性がある（Ｎ）" style="shape=partialRectangle;connectable=0;fillColor=none;top=0;left=0;bottom=0;right=0;align=left;spacingLeft=6;fontStyle=0;overflow=hidden;strokeColor=#FF3333;fontSize=25;" vertex="1" parent="401">
                    <mxGeometry x="219" width="870" height="110" as="geometry">
                        <mxRectangle width="870" height="110" as="alternateBounds"/>
                    </mxGeometry>
                </mxCell>
                <mxCell id="404" value="favorits - usersテーブル" style="shape=table;startSize=40;container=1;collapsible=1;childLayout=tableLayout;fixedRows=1;rowLines=0;fontStyle=1;align=center;resizeLast=1;strokeColor=default;fillColor=default;strokeWidth=3;fontSize=25;verticalAlign=middle;" vertex="1" parent="1">
                    <mxGeometry x="41" y="1540" width="1089" height="150" as="geometry"/>
                </mxCell>
                <mxCell id="405" value="" style="shape=tableRow;horizontal=0;startSize=0;swimlaneHead=0;swimlaneBody=0;fillColor=none;collapsible=0;dropTarget=0;points=[[0,0.5],[1,0.5]];portConstraint=eastwest;top=0;left=0;right=0;bottom=0;strokeColor=#FF3333;" vertex="1" parent="404">
                    <mxGeometry y="40" width="1089" height="110" as="geometry"/>
                </mxCell>
                <mxCell id="406" value="1対1" style="shape=partialRectangle;connectable=0;fillColor=none;top=0;left=0;bottom=0;right=0;fontStyle=1;overflow=hidden;strokeColor=#FF3333;fontSize=25;" vertex="1" parent="405">
                    <mxGeometry width="219" height="110" as="geometry">
                        <mxRectangle width="219" height="110" as="alternateBounds"/>
                    </mxGeometry>
                </mxCell>
                <mxCell id="407" value="・お気に入りに対してユーザーいない可能性は無い（0）&#10;・お気に入りに対してユーザーは1人存在する（1）&#10;・お気に入りに対してユーザーが複数人存在する可能性は無い（Ｎ）" style="shape=partialRectangle;connectable=0;fillColor=none;top=0;left=0;bottom=0;right=0;align=left;spacingLeft=6;fontStyle=0;overflow=hidden;strokeColor=#FF3333;fontSize=25;" vertex="1" parent="405">
                    <mxGeometry x="219" width="870" height="110" as="geometry">
                        <mxRectangle width="870" height="110" as="alternateBounds"/>
                    </mxGeometry>
                </mxCell>
                <mxCell id="410" value="restaurants - favorits テーブル" style="shape=table;startSize=40;container=1;collapsible=1;childLayout=tableLayout;fixedRows=1;rowLines=0;fontStyle=1;align=center;resizeLast=1;strokeColor=default;fillColor=default;strokeWidth=3;fontSize=25;verticalAlign=middle;" vertex="1" parent="1">
                    <mxGeometry x="41" y="1720" width="1089" height="150" as="geometry"/>
                </mxCell>
                <mxCell id="411" value="" style="shape=tableRow;horizontal=0;startSize=0;swimlaneHead=0;swimlaneBody=0;fillColor=none;collapsible=0;dropTarget=0;points=[[0,0.5],[1,0.5]];portConstraint=eastwest;top=0;left=0;right=0;bottom=0;strokeColor=#FF3333;" vertex="1" parent="410">
                    <mxGeometry y="40" width="1089" height="110" as="geometry"/>
                </mxCell>
                <mxCell id="412" value="1対Ｎ（0以上）" style="shape=partialRectangle;connectable=0;fillColor=none;top=0;left=0;bottom=0;right=0;fontStyle=1;overflow=hidden;strokeColor=#FF3333;fontSize=25;" vertex="1" parent="411">
                    <mxGeometry width="219" height="110" as="geometry">
                        <mxRectangle width="219" height="110" as="alternateBounds"/>
                    </mxGeometry>
                </mxCell>
                <mxCell id="413" value="・レストランに対してお気に入りが無い可能性がある（0）&#10;・レストランに対してお気に入りが1件存在する可能性がある（1）&#10;・レストランに対してお気に入りが複数存在する可能性がある（Ｎ）" style="shape=partialRectangle;connectable=0;fillColor=none;top=0;left=0;bottom=0;right=0;align=left;spacingLeft=6;fontStyle=0;overflow=hidden;strokeColor=#FF3333;fontSize=25;" vertex="1" parent="411">
                    <mxGeometry x="219" width="870" height="110" as="geometry">
                        <mxRectangle width="870" height="110" as="alternateBounds"/>
                    </mxGeometry>
                </mxCell>
                <mxCell id="414" value="favorits - restaurantsテーブル" style="shape=table;startSize=40;container=1;collapsible=1;childLayout=tableLayout;fixedRows=1;rowLines=0;fontStyle=1;align=center;resizeLast=1;strokeColor=default;fillColor=default;strokeWidth=3;fontSize=25;verticalAlign=middle;" vertex="1" parent="1">
                    <mxGeometry x="41" y="1900" width="1089" height="150" as="geometry"/>
                </mxCell>
                <mxCell id="415" value="" style="shape=tableRow;horizontal=0;startSize=0;swimlaneHead=0;swimlaneBody=0;fillColor=none;collapsible=0;dropTarget=0;points=[[0,0.5],[1,0.5]];portConstraint=eastwest;top=0;left=0;right=0;bottom=0;strokeColor=#FF3333;" vertex="1" parent="414">
                    <mxGeometry y="40" width="1089" height="110" as="geometry"/>
                </mxCell>
                <mxCell id="416" value="1対1" style="shape=partialRectangle;connectable=0;fillColor=none;top=0;left=0;bottom=0;right=0;fontStyle=1;overflow=hidden;strokeColor=#FF3333;fontSize=25;" vertex="1" parent="415">
                    <mxGeometry width="219" height="110" as="geometry">
                        <mxRectangle width="219" height="110" as="alternateBounds"/>
                    </mxGeometry>
                </mxCell>
                <mxCell id="417" value="・お気に入りに対してユーザーいない可能性は無い（0）&#10;・お気に入りに対してユーザーは1人存在する（1）&#10;・お気に入りに対してユーザーが複数人存在する可能性は無い（Ｎ）" style="shape=partialRectangle;connectable=0;fillColor=none;top=0;left=0;bottom=0;right=0;align=left;spacingLeft=6;fontStyle=0;overflow=hidden;strokeColor=#FF3333;fontSize=25;" vertex="1" parent="415">
                    <mxGeometry x="219" width="870" height="110" as="geometry">
                        <mxRectangle width="870" height="110" as="alternateBounds"/>
                    </mxGeometry>
                </mxCell>
                <mxCell id="425" style="edgeStyle=none;html=1;fontSize=26;startArrow=ERone;startFill=0;endArrow=ERzeroToMany;endFill=0;startSize=16;endSize=16;elbow=vertical;exitX=1;exitY=0.5;exitDx=0;exitDy=0;strokeWidth=3;" edge="1" parent="1" source="110">
                    <mxGeometry relative="1" as="geometry">
                        <mxPoint x="2244" y="1010" as="targetPoint"/>
                        <Array as="points">
                            <mxPoint x="2244" y="1585"/>
                        </Array>
                    </mxGeometry>
                </mxCell>
                <mxCell id="426" value="users - evaluations テーブル" style="shape=table;startSize=40;container=1;collapsible=1;childLayout=tableLayout;fixedRows=1;rowLines=0;fontStyle=1;align=center;resizeLast=1;strokeColor=default;fillColor=default;strokeWidth=3;fontSize=25;verticalAlign=middle;" vertex="1" parent="1">
                    <mxGeometry x="41" y="2070" width="1089" height="150" as="geometry"/>
                </mxCell>
                <mxCell id="427" value="" style="shape=tableRow;horizontal=0;startSize=0;swimlaneHead=0;swimlaneBody=0;fillColor=none;collapsible=0;dropTarget=0;points=[[0,0.5],[1,0.5]];portConstraint=eastwest;top=0;left=0;right=0;bottom=0;strokeColor=#FF3333;" vertex="1" parent="426">
                    <mxGeometry y="40" width="1089" height="110" as="geometry"/>
                </mxCell>
                <mxCell id="428" value="1対Ｎ（0以上）" style="shape=partialRectangle;connectable=0;fillColor=none;top=0;left=0;bottom=0;right=0;fontStyle=1;overflow=hidden;strokeColor=#FF3333;fontSize=25;" vertex="1" parent="427">
                    <mxGeometry width="219" height="110" as="geometry">
                        <mxRectangle width="219" height="110" as="alternateBounds"/>
                    </mxGeometry>
                </mxCell>
                <mxCell id="429" value="・ユーザーが評価をしない可能性がある（0）&#10;・ユーザーの評価が1件存在する可能性がある（1）&#10;・ユーザーの評価が複数存在する可能性がある（Ｎ）" style="shape=partialRectangle;connectable=0;fillColor=none;top=0;left=0;bottom=0;right=0;align=left;spacingLeft=6;fontStyle=0;overflow=hidden;strokeColor=#FF3333;fontSize=25;" vertex="1" parent="427">
                    <mxGeometry x="219" width="870" height="110" as="geometry">
                        <mxRectangle width="870" height="110" as="alternateBounds"/>
                    </mxGeometry>
                </mxCell>
                <mxCell id="430" value="evaluations - users テーブル" style="shape=table;startSize=40;container=1;collapsible=1;childLayout=tableLayout;fixedRows=1;rowLines=0;fontStyle=1;align=center;resizeLast=1;strokeColor=default;fillColor=default;strokeWidth=3;fontSize=25;verticalAlign=middle;" vertex="1" parent="1">
                    <mxGeometry x="41" y="2250" width="1089" height="150" as="geometry"/>
                </mxCell>
                <mxCell id="431" value="" style="shape=tableRow;horizontal=0;startSize=0;swimlaneHead=0;swimlaneBody=0;fillColor=none;collapsible=0;dropTarget=0;points=[[0,0.5],[1,0.5]];portConstraint=eastwest;top=0;left=0;right=0;bottom=0;strokeColor=#FF3333;" vertex="1" parent="430">
                    <mxGeometry y="40" width="1089" height="110" as="geometry"/>
                </mxCell>
                <mxCell id="432" value="1対1" style="shape=partialRectangle;connectable=0;fillColor=none;top=0;left=0;bottom=0;right=0;fontStyle=1;overflow=hidden;strokeColor=#FF3333;fontSize=25;" vertex="1" parent="431">
                    <mxGeometry width="219" height="110" as="geometry">
                        <mxRectangle width="219" height="110" as="alternateBounds"/>
                    </mxGeometry>
                </mxCell>
                <mxCell id="433" value="・評価に対してユーザーいない可能性は無い（0）&#10;・評価に対してユーザーは1人存在する（1）&#10;・評価に対してユーザーが複数人存在する可能性は無い（Ｎ）" style="shape=partialRectangle;connectable=0;fillColor=none;top=0;left=0;bottom=0;right=0;align=left;spacingLeft=6;fontStyle=0;overflow=hidden;strokeColor=#FF3333;fontSize=25;" vertex="1" parent="431">
                    <mxGeometry x="219" width="870" height="110" as="geometry">
                        <mxRectangle width="870" height="110" as="alternateBounds"/>
                    </mxGeometry>
                </mxCell>
                <mxCell id="434" value="restaurants - evaluations テーブル" style="shape=table;startSize=40;container=1;collapsible=1;childLayout=tableLayout;fixedRows=1;rowLines=0;fontStyle=1;align=center;resizeLast=1;strokeColor=default;fillColor=default;strokeWidth=3;fontSize=25;verticalAlign=middle;" vertex="1" parent="1">
                    <mxGeometry x="1180" y="1720" width="1089" height="150" as="geometry"/>
                </mxCell>
                <mxCell id="435" value="" style="shape=tableRow;horizontal=0;startSize=0;swimlaneHead=0;swimlaneBody=0;fillColor=none;collapsible=0;dropTarget=0;points=[[0,0.5],[1,0.5]];portConstraint=eastwest;top=0;left=0;right=0;bottom=0;strokeColor=#FF3333;" vertex="1" parent="434">
                    <mxGeometry y="40" width="1089" height="110" as="geometry"/>
                </mxCell>
                <mxCell id="436" value="1対Ｎ（0以上）" style="shape=partialRectangle;connectable=0;fillColor=none;top=0;left=0;bottom=0;right=0;fontStyle=1;overflow=hidden;strokeColor=#FF3333;fontSize=25;" vertex="1" parent="435">
                    <mxGeometry width="219" height="110" as="geometry">
                        <mxRectangle width="219" height="110" as="alternateBounds"/>
                    </mxGeometry>
                </mxCell>
                <mxCell id="437" value="・レストランに評価が存在しない可能性がある（0）&#10;・レストランに評価が1件存在する可能性がある（1）&#10;・レストランの評価が複数存在する可能性がある（Ｎ）" style="shape=partialRectangle;connectable=0;fillColor=none;top=0;left=0;bottom=0;right=0;align=left;spacingLeft=6;fontStyle=0;overflow=hidden;strokeColor=#FF3333;fontSize=25;" vertex="1" parent="435">
                    <mxGeometry x="219" width="870" height="110" as="geometry">
                        <mxRectangle width="870" height="110" as="alternateBounds"/>
                    </mxGeometry>
                </mxCell>
                <mxCell id="438" value="evaluations -restaurants テーブル" style="shape=table;startSize=40;container=1;collapsible=1;childLayout=tableLayout;fixedRows=1;rowLines=0;fontStyle=1;align=center;resizeLast=1;strokeColor=default;fillColor=default;strokeWidth=3;fontSize=25;verticalAlign=middle;" vertex="1" parent="1">
                    <mxGeometry x="1180" y="1900" width="1089" height="150" as="geometry"/>
                </mxCell>
                <mxCell id="439" value="" style="shape=tableRow;horizontal=0;startSize=0;swimlaneHead=0;swimlaneBody=0;fillColor=none;collapsible=0;dropTarget=0;points=[[0,0.5],[1,0.5]];portConstraint=eastwest;top=0;left=0;right=0;bottom=0;strokeColor=#FF3333;" vertex="1" parent="438">
                    <mxGeometry y="40" width="1089" height="110" as="geometry"/>
                </mxCell>
                <mxCell id="440" value="1対1" style="shape=partialRectangle;connectable=0;fillColor=none;top=0;left=0;bottom=0;right=0;fontStyle=1;overflow=hidden;strokeColor=#FF3333;fontSize=25;" vertex="1" parent="439">
                    <mxGeometry width="219" height="110" as="geometry">
                        <mxRectangle width="219" height="110" as="alternateBounds"/>
                    </mxGeometry>
                </mxCell>
                <mxCell id="441" value="・評価に対してレストランが存在しない可能性は無い（0）&#10;・評価に対してレストランは1軒存在する（1）&#10;・評価に対してレストランが複数存在する可能性は無い（Ｎ）" style="shape=partialRectangle;connectable=0;fillColor=none;top=0;left=0;bottom=0;right=0;align=left;spacingLeft=6;fontStyle=0;overflow=hidden;strokeColor=#FF3333;fontSize=25;" vertex="1" parent="439">
                    <mxGeometry x="219" width="870" height="110" as="geometry">
                        <mxRectangle width="870" height="110" as="alternateBounds"/>
                    </mxGeometry>
                </mxCell>
            </root>
        </mxGraphModel>
    </diagram>
</mxfile>